<?xml version="1.0" encoding="utf-8"?>
<!-- Generator: Adobe Illustrator 23.0.0, SVG Export Plug-In . SVG Version: 6.00 Build 0)  -->
<svg version="1.1" id="Capa_1" xmlns="http://www.w3.org/2000/svg" xmlns:xlink="http://www.w3.org/1999/xlink" x="0px" y="0px"
	 viewBox="0 0 841.9 307.3" style="enable-background:new 0 0 841.9 307.3;" xml:space="preserve">
<style type="text/css">
	.st0{fill:#212121;}
	.st1{fill:#FFFFFF;}
</style>
<rect x="541.1" y="194.2" class="st0" width="258.9" height="86.9"/>
<g>
	<path class="st0" d="M83.6,174.1c-10.8,0-19-3.1-24.5-9.4c-5.6-6.3-8.4-15.3-8.4-27.1c0-12,2.9-21.2,8.8-27.6s14.3-9.7,25.4-9.7
		c7.5,0,14.3,1.4,20.3,4.2l-4.6,12.2c-6.4-2.5-11.7-3.7-15.8-3.7c-12.3,0-18.5,8.2-18.5,24.5c0,8,1.5,14,4.6,18c3.1,4,7.6,6,13.5,6
		c6.7,0,13.1-1.7,19.1-5v13.2c-2.7,1.6-5.6,2.7-8.7,3.4C91.7,173.7,88,174.1,83.6,174.1z"/>
	<path class="st0" d="M183.3,137.1c0,11.6-3,20.7-8.9,27.2c-6,6.5-14.3,9.8-24.9,9.8c-6.7,0-12.5-1.5-17.6-4.5
		c-5.1-3-9-7.3-11.8-12.9c-2.7-5.6-4.1-12.1-4.1-19.6c0-11.5,3-20.5,8.9-27c5.9-6.5,14.3-9.7,25-9.7c10.3,0,18.4,3.3,24.5,9.9
		C180.3,116.9,183.3,125.9,183.3,137.1z M131.5,137.1c0,16.4,6.1,24.6,18.2,24.6c12,0,18-8.2,18-24.6c0-16.3-6-24.4-18.1-24.4
		c-6.3,0-11,2.1-13.8,6.3C132.9,123.2,131.5,129.2,131.5,137.1z"/>
	<path class="st0" d="M260.6,172.8h-15.2v-43.9c0-5.4-1-9.5-3.1-12.2c-2.1-2.7-5.3-4-9.7-4c-5.8,0-10.1,1.9-12.8,5.7
		c-2.7,3.8-4.1,10.1-4.1,19v35.5h-15.1v-71.2h11.8l2.1,9.3h0.8c2-3.4,4.8-6,8.6-7.9c3.8-1.8,7.9-2.8,12.4-2.8
		c10.9,0,18.2,3.7,21.8,11.2h1c2.1-3.5,5.1-6.3,8.9-8.2c3.8-2,8.2-3,13.1-3c8.5,0,14.7,2.1,18.6,6.4c3.9,4.3,5.8,10.8,5.8,19.6v46.4
		h-15.1v-43.9c0-5.4-1-9.5-3.1-12.2c-2.1-2.7-5.3-4-9.7-4c-5.9,0-10.2,1.8-12.9,5.5c-2.7,3.7-4.1,9.3-4.1,16.9V172.8z"/>
	<path class="st0" d="M362.7,174.1c-9,0-16-3.2-21-9.7h-0.9c0.6,6,0.9,9.7,0.9,10.9v29.2h-15.1V101.6h12.2c0.3,1.3,1.1,4.5,2.1,9.5
		h0.8c4.7-7.2,11.8-10.8,21.2-10.8c8.9,0,15.8,3.2,20.8,9.7s7.4,15.5,7.4,27.1s-2.5,20.7-7.6,27.2
		C378.6,170.8,371.6,174.1,362.7,174.1z M359.1,112.7c-6,0-10.4,1.8-13.2,5.3s-4.2,9.1-4.2,16.9v2.3c0,8.7,1.4,14.9,4.1,18.8
		c2.7,3.9,7.2,5.8,13.4,5.8c5.2,0,9.3-2.1,12.1-6.4c2.8-4.3,4.2-10.4,4.2-18.3c0-8-1.4-14-4.2-18.1
		C368.6,114.8,364.5,112.7,359.1,112.7z"/>
	<path class="st0" d="M444.8,100.3c3,0,5.6,0.2,7.5,0.6l-1.5,14.1c-2.1-0.5-4.4-0.8-6.7-0.8c-6,0-11,2-14.7,5.9
		c-3.8,3.9-5.6,9.1-5.6,15.4v37.2h-15.1v-71.2h11.8l2,12.5h0.8c2.4-4.2,5.4-7.6,9.2-10.1C436.4,101.6,440.5,100.3,444.8,100.3z"/>
	<path class="st0" d="M510.1,172.8l-3-9.9h-0.5c-3.4,4.3-6.9,7.3-10.4,8.8s-7.9,2.3-13.4,2.3c-7,0-12.5-1.9-16.4-5.7
		c-3.9-3.8-5.9-9.1-5.9-16c0-7.3,2.7-12.9,8.2-16.6s13.7-5.8,24.9-6.1l12.3-0.4v-3.8c0-4.5-1.1-7.9-3.2-10.2
		c-2.1-2.3-5.4-3.4-9.9-3.4c-3.6,0-7.1,0.5-10.5,1.6c-3.3,1.1-6.6,2.3-9.7,3.8l-4.9-10.8c3.9-2,8.1-3.5,12.7-4.6
		c4.6-1.1,8.9-1.6,13-1.6c9.1,0,15.9,2,20.5,5.9c4.6,3.9,6.9,10.1,6.9,18.6v47.9H510.1z M487.6,162.5c5.5,0,9.9-1.5,13.2-4.6
		c3.3-3.1,5-7.4,5-12.9v-6.2l-9.1,0.4c-7.1,0.3-12.3,1.4-15.5,3.6c-3.2,2.1-4.9,5.4-4.9,9.7c0,3.2,0.9,5.6,2.8,7.4
		C481,161.6,483.8,162.5,487.6,162.5z"/>
	<path class="st0" d="M557.1,172.8H542V72.7h15.1V172.8z"/>
	<path class="st0" d="M623.3,172.8l-3-9.9h-0.5c-3.4,4.3-6.9,7.3-10.4,8.8s-7.9,2.3-13.4,2.3c-7,0-12.5-1.9-16.4-5.7
		c-3.9-3.8-5.9-9.1-5.9-16c0-7.3,2.7-12.9,8.2-16.6s13.7-5.8,24.9-6.1l12.3-0.4v-3.8c0-4.5-1.1-7.9-3.2-10.2
		c-2.1-2.3-5.4-3.4-9.9-3.4c-3.6,0-7.1,0.5-10.5,1.6c-3.3,1.1-6.6,2.3-9.7,3.8l-4.9-10.8c3.9-2,8.1-3.5,12.7-4.6
		c4.6-1.1,8.9-1.6,13-1.6c9.1,0,15.9,2,20.5,5.9c4.6,3.9,6.9,10.1,6.9,18.6v47.9H623.3z M600.8,162.5c5.5,0,9.9-1.5,13.2-4.6
		c3.3-3.1,5-7.4,5-12.9v-6.2l-9.1,0.4c-7.1,0.3-12.3,1.4-15.5,3.6c-3.2,2.1-4.9,5.4-4.9,9.7c0,3.2,0.9,5.6,2.8,7.4
		C594.2,161.6,597,162.5,600.8,162.5z"/>
	<path class="st0" d="M717.8,172.8h-15.2V129c0-5.5-1.1-9.6-3.3-12.3c-2.2-2.7-5.7-4.1-10.5-4.1c-6.4,0-11.1,1.9-14,5.7
		c-3,3.8-4.4,10.1-4.4,19v35.5h-15.1v-71.2H667l2.1,9.3h0.8c2.1-3.4,5.2-6,9.1-7.9c3.9-1.8,8.3-2.8,13.1-2.8
		c17.1,0,25.6,8.7,25.6,26.1V172.8z"/>
	<path class="st0" d="M762.9,174.1c-8.9,0-15.8-3.2-20.8-9.7c-5-6.4-7.5-15.5-7.5-27.1c0-11.7,2.5-20.8,7.6-27.3s12-9.7,20.9-9.7
		c9.4,0,16.5,3.5,21.4,10.4h0.8c-0.7-5.1-1.1-9.1-1.1-12.1V72.7h15.2v100.1h-11.8l-2.6-9.3h-0.7
		C779.3,170.6,772.2,174.1,762.9,174.1z M766.9,161.9c6.2,0,10.7-1.7,13.6-5.2c2.8-3.5,4.3-9.2,4.4-17v-2.1c0-9-1.5-15.3-4.4-19.1
		c-2.9-3.8-7.5-5.7-13.7-5.7c-5.3,0-9.4,2.2-12.3,6.5s-4.3,10.5-4.3,18.4c0,7.9,1.4,13.9,4.2,18.1
		C757.2,159.8,761.3,161.9,766.9,161.9z"/>
</g>
<g>
	<path class="st1" d="M548.4,262.3c0-2.6,0.7-4.7,2.1-6.1s3.4-2.1,6-2.1c2.6,0,4.6,0.7,6,2.2c1.4,1.5,2.1,3.5,2.1,6
		c0,2.6-0.7,4.6-2.1,6.1c-1.4,1.5-3.4,2.3-6,2.3c-2.6,0-4.6-0.7-6-2.2S548.4,264.9,548.4,262.3z"/>
	<path class="st1" d="M603.9,270.2c-9.1,0-16-2.6-20.7-8c-4.7-5.3-7.1-12.9-7.1-22.8c0-10.1,2.5-17.9,7.4-23.3
		c4.9-5.4,12.1-8.1,21.4-8.1c6.3,0,12,1.2,17.1,3.5l-3.9,10.3c-5.4-2.1-9.8-3.1-13.4-3.1c-10.4,0-15.6,6.9-15.6,20.7
		c0,6.7,1.3,11.8,3.9,15.2c2.6,3.4,6.4,5.1,11.4,5.1c5.7,0,11.1-1.4,16.1-4.2v11.1c-2.3,1.3-4.7,2.3-7.3,2.9
		C610.7,269.9,607.6,270.2,603.9,270.2z"/>
	<path class="st1" d="M686.9,239c0,9.8-2.5,17.5-7.5,23c-5,5.5-12,8.2-21,8.2c-5.6,0-10.6-1.3-14.9-3.8c-4.3-2.5-7.6-6.2-9.9-10.9
		c-2.3-4.7-3.5-10.2-3.5-16.5c0-9.7,2.5-17.3,7.5-22.8s12-8.2,21.1-8.2c8.7,0,15.6,2.8,20.6,8.4S686.9,229.5,686.9,239z M643.2,239
		c0,13.9,5.1,20.8,15.4,20.8c10.1,0,15.2-6.9,15.2-20.8c0-13.7-5.1-20.6-15.3-20.6c-5.4,0-9.2,1.8-11.6,5.3
		C644.4,227.3,643.2,232.4,643.2,239z"/>
	<path class="st1" d="M751,269.1h-12.8v-37c0-4.6-0.9-8-2.6-10.3c-1.7-2.3-4.5-3.4-8.1-3.4c-4.9,0-8.5,1.6-10.8,4.8s-3.4,8.5-3.4,16
		v29.9h-12.8v-60h10l1.8,7.9h0.7c1.7-2.9,4.1-5.1,7.2-6.6c3.2-1.6,6.6-2.3,10.4-2.3c9.2,0,15.3,3.1,18.3,9.4h0.9
		c1.8-3,4.3-5.3,7.5-6.9c3.2-1.7,6.9-2.5,11.1-2.5c7.2,0,12.4,1.8,15.7,5.4c3.3,3.6,4.9,9.1,4.9,16.6v39.1h-12.8v-37
		c0-4.6-0.9-8-2.6-10.3c-1.8-2.3-4.5-3.4-8.2-3.4c-5,0-8.6,1.5-10.9,4.6c-2.3,3.1-3.4,7.8-3.4,14.2V269.1z"/>
</g>
</svg>
